<?xml version="1.0" encoding="UTF-8" standalone="no"?>
<svg width="1000px" height="1000px" viewBox="0 0 1000 1000" version="1.1" xmlns="http://www.w3.org/2000/svg" xmlns:xlink="http://www.w3.org/1999/xlink">
    <!-- Generator: Sketch 3.7.1 (28215) - http://www.bohemiancoding.com/sketch -->
    <title>Group 3</title>
    <desc>Created with Sketch.</desc>
    <defs></defs>
    <g id="Page-2" stroke="none" stroke-width="1" fill="none" fill-rule="evenodd">
        <g id="Group-3">
            <path d="M811.766606,296.607029 C725.516404,296.607029 655.657643,226.748269 655.657643,140.498066 C655.657643,101.665961 670.390426,66.541445 693.904339,39.2223769 C634.095092,13.9522389 568.43176,0 499.548681,0 C223.626089,0 0,223.723657 0,499.54868 C0,775.471271 223.626089,999.097361 499.548681,999.097361 C775.471273,999.097361 999.097362,775.471272 999.097361,499.54868 C999.097361,405.980871 972.851541,318.65742 928.067783,243.725117 C899.480329,275.922591 858.209022,296.607028 811.766606,296.607029 Z" id="Shape" fill="#FFC4C8"></path>
            <path d="M238.675291,767.256916 C232.468717,780.47076 238.148444,796.222193 251.355655,802.404131 C264.478533,808.562379 280.221438,802.931927 286.455491,789.773041 C289.099207,784.249664 352.329513,654.941609 499.098414,654.941609 C659.240351,654.941609 708.869257,784.171015 710.929271,789.665018 C715.974126,803.3318 731.081212,810.308748 744.787792,805.392762 C758.446046,800.396232 765.522488,785.331786 760.580917,771.641316 C759.949837,769.980228 697.138357,602.112764 499.098413,602.112764 C318.202829,602.112764 241.820271,760.519703 238.675291,767.256916" id="Shape" fill="#FF8992"></path>
            <g id="Group" transform="translate(267.388813, 340.579181)" fill="#FF8992">
                <path d="M67.8347682,135.646149 C105.298876,135.646149 135.669536,105.280725 135.669536,67.8230747 C135.669536,30.3654249 105.298876,0 67.8347682,0 C30.3706602,0 0,30.3654249 0,67.8230747 C0,105.280725 30.3706602,135.646149 67.8347682,135.646149 Z" id="Oval-1"></path>
                <ellipse id="Oval-1-Copy" cx="396.70349" cy="67.8230747" rx="67.8347682" ry="67.8230747"></ellipse>
            </g>
            <g id="Group-2" transform="translate(671.314741, 0.000000)">
                <path d="M140.582972,0 C63.016331,0 0.0849062373,62.9314257 0.0849052614,140.498066 C0.0849042856,218.064706 63.016331,280.996132 140.582972,280.996133 C218.149613,280.996134 281.081038,218.064707 281.081038,140.498066 C281.081038,62.9314248 218.149612,0 140.582972,0 L140.582972,0 Z" id="Shape" fill="#FF8992"></path>
                <path d="M140.87809,227.034331 C132.934307,227.034331 126.494024,220.60824 126.494024,212.68075 C126.494024,204.752278 132.934307,198.325203 140.87809,198.325203 C148.821872,198.325203 155.262155,204.752278 155.262155,212.68075 C155.262155,220.60824 148.821872,227.034331 140.87809,227.034331 L140.87809,227.034331 Z" id="Path" fill="#FFFFFF"></path>
                <path d="M140.87809,179.186222 C132.934307,179.186222 126.494024,172.760131 126.494024,164.831658 L126.494024,69.1354403 C126.494024,61.2079508 132.934307,54.7808765 140.87809,54.7808765 C148.821872,54.7808765 155.262155,61.2079508 155.262155,69.1354403 L155.262155,164.831658 C155.262155,172.760131 148.821872,179.186222 140.87809,179.186222 Z" id="Path" fill="#FFFFFF"></path>
            </g>
        </g>
    </g>
</svg>