<?xml version="1.0" encoding="UTF-8" standalone="no"?>
<svg width="1000px" height="1000px" viewBox="0 0 1000 1000" version="1.1" xmlns="http://www.w3.org/2000/svg" xmlns:xlink="http://www.w3.org/1999/xlink">
    <!-- Generator: Sketch 3.7.1 (28215) - http://www.bohemiancoding.com/sketch -->
    <title>Group 3</title>
    <desc>Created with Sketch.</desc>
    <defs></defs>
    <g id="Page-3" stroke="none" stroke-width="1" fill="none" fill-rule="evenodd">
        <g id="Group-3">
            <path d="M811.766606,296.607029 C725.516404,296.607029 655.657643,226.748269 655.657643,140.498066 C655.657643,101.665961 670.390426,66.541445 693.904339,39.2223769 C634.095092,13.9522389 568.43176,0 499.548681,0 C223.626089,0 0,223.723657 0,499.54868 C0,775.471271 223.626089,999.097361 499.548681,999.097361 C775.471273,999.097361 999.097362,775.471272 999.097361,499.54868 C999.097361,405.980871 972.851541,318.65742 928.067783,243.725117 C899.480329,275.922591 858.209022,296.607028 811.766606,296.607029 Z" id="Shape" fill="#A5DBFF"></path>
            <g id="Group-2" transform="translate(671.314741, 0.000000)">
                <path d="M140.582972,0 C63.016331,0 0.0849062373,62.9314257 0.0849052614,140.498066 C0.0849042856,218.064706 63.016331,280.996132 140.582972,280.996133 C218.149613,280.996134 281.081038,218.064707 281.081038,140.498066 C281.081038,62.9314248 218.149612,0 140.582972,0 L140.582972,0 Z" id="Shape" fill="#5EB7F3"></path>
                <path d="M140.87809,227.034331 C132.934307,227.034331 126.494024,220.60824 126.494024,212.68075 C126.494024,204.752278 132.934307,198.325203 140.87809,198.325203 C148.821872,198.325203 155.262155,204.752278 155.262155,212.68075 C155.262155,220.60824 148.821872,227.034331 140.87809,227.034331 L140.87809,227.034331 Z" id="Path" fill="#FFFFFF"></path>
                <path d="M140.87809,179.186222 C132.934307,179.186222 126.494024,172.760131 126.494024,164.831658 L126.494024,69.1354403 C126.494024,61.2079508 132.934307,54.7808765 140.87809,54.7808765 C148.821872,54.7808765 155.262155,61.2079508 155.262155,69.1354403 L155.262155,164.831658 C155.262155,172.760131 148.821872,179.186222 140.87809,179.186222 Z" id="Path" fill="#FFFFFF"></path>
            </g>
            <path d="M325.314744,308.474056 C318.121595,301.280319 306.453832,301.280319 299.267743,308.474056 C292.071653,315.668382 292.071653,327.33085 299.267743,334.527528 L325.314744,360.574529 C332.510834,367.769443 344.168596,367.769443 351.365275,360.574529 C358.558424,353.384322 358.558424,341.723619 351.365275,334.527528 L325.314744,308.474056 L325.314744,308.474056 L325.314744,308.474056 Z M675.316427,308.474056 L649.26825,334.527528 C642.073924,341.723619 642.073924,353.384322 649.26825,360.574529 C656.454339,367.769443 668.11916,367.769443 675.316427,360.574529 L701.362251,334.527528 C708.560107,327.331438 708.560107,315.668971 701.362251,308.474056 C694.170867,301.283849 682.510753,301.283849 675.316427,308.474056 L675.316427,308.474056 L675.316427,308.474056 Z M279.264353,454.262547 L242.422039,454.262547 C232.249148,454.262547 224,462.509931 224,472.682821 C224,482.858653 232.24856,491.10486 242.422039,491.10486 L279.264353,491.10486 C289.437243,491.10486 297.68345,482.858653 297.68345,472.682821 C297.68345,462.510519 289.437243,454.262547 279.264353,454.262547 L279.264353,454.262547 L279.264353,454.262547 Z M758.20972,454.262547 L721.367995,454.262547 C711.195693,454.262547 702.946544,462.509931 702.946544,472.682821 C702.946544,482.858653 711.195693,491.10486 721.367995,491.10486 L758.20972,491.10486 C768.382022,491.10486 776.634113,482.858653 776.634113,472.682821 C776.634113,462.510519 768.382023,454.262547 758.20972,454.262547 L758.20972,454.262547 L758.20972,454.262547 Z M481.895605,242.421451 L481.895605,279.262588 C481.895605,289.436655 490.140635,297.681685 500.313526,297.681685 C510.486417,297.681685 518.737919,289.436655 518.737919,279.262588 L518.737919,242.421451 C518.737919,232.24856 510.486417,224 500.313526,224 C490.140635,224 481.895605,232.24856 481.895605,242.421451 L481.895605,242.421451 L481.895605,242.421451 Z M371.368077,500.314703 C371.368077,429.100938 429.09682,371.368077 500.313526,371.368077 C571.533174,371.368077 629.26427,429.100938 629.26427,500.314703 C629.26427,571.530822 571.532586,629.265447 500.313526,629.265447 C429.09682,629.266036 371.368077,571.530822 371.368077,500.314703 L371.368077,500.314703 L371.368077,500.314703 Z M334.527528,500.314703 C334.527528,591.885428 408.749862,666.112467 500.313526,666.112467 C591.881897,666.112467 666.104819,591.885427 666.104819,500.314703 C666.104819,408.748685 591.881897,334.52694 500.313526,334.52694 C408.749273,334.527528 334.527528,408.749273 334.527528,500.314703 L334.527528,500.314703 L334.527528,500.314703 Z M463.473566,758.215603 C463.473566,768.381434 471.722126,776.637054 481.895605,776.637054 L518.737919,776.637054 C528.911398,776.637054 537.159958,768.382022 537.159958,758.215603 C537.159958,748.036241 528.911398,739.793564 518.737919,739.793564 L481.895605,739.793564 C471.722715,739.793564 463.473566,748.036241 463.473566,758.215603 L463.473566,758.215603 L463.473566,758.215603 Z M426.633018,702.953604 C426.633018,713.118259 434.879225,721.373878 445.052115,721.373878 L555.579056,721.373878 C565.751947,721.373878 574.000507,713.118847 574.000507,702.953604 C574.000507,692.771889 565.751947,684.528624 555.579056,684.528624 L445.052115,684.528624 C434.878636,684.528035 426.633018,692.771889 426.633018,702.953604 L426.633018,702.953604 L426.633018,702.953604 Z" id="Shape" fill="#5EB7F3"></path>
        </g>
    </g>
</svg>