<?xml version="1.0" encoding="UTF-8" standalone="no"?>
<svg width="768px" height="1184px" viewBox="0 0 768 1184" version="1.1" xmlns="http://www.w3.org/2000/svg" xmlns:xlink="http://www.w3.org/1999/xlink">
    <!-- Generator: Sketch 3.7.1 (28215) - http://www.bohemiancoding.com/sketch -->
    <title>Slice 1</title>
    <desc>Created with Sketch.</desc>
    <defs></defs>
    <g id="logo" stroke="none" stroke-width="1" fill="none" fill-rule="evenodd">
        <path d="M64.433651,605.899968 C20.067302,536.265612 0,469.698785 0,389.731348 C0,174.488668 171.922656,0 384,0 C596.077344,0 768,174.488668 768,389.731348 C768,469.698785 747.932698,536.265612 703.566349,605.899968 C614.4,753.480595 441.6,870.4 384,870.4 C326.4,870.4 153.6,753.480595 64.433651,605.899968 L64.433651,605.899968 Z" id="body" fill="#18BC9C"></path>
        <path d="M429.648991,190.816 L430.160991,190.816 L429.648991,190.816 L429.648991,190.816 Z M429.648991,156 L427.088991,156 C419.408991,157.024 411.728991,160.608 404.560991,168.8 L403.024991,170.848 L206.928991,429.92 C198.736991,441.184 197.712991,453.984 204.368991,466.784 C210.512991,478.048 222.288991,485.728 235.600991,485.728 L336.464991,486.24 L304.208991,673.632 C301.648991,689.504 310.352991,705.376 325.200991,712.032 C329.808991,714.08 334.416991,714.592 339.536991,714.592 C349.776991,714.592 358.992991,709.472 366.160991,700.256 L561.744991,419.168 C569.936991,407.904 570.960991,395.104 564.304991,382.304 C557.648991,369.504 547.408991,363.36 533.072991,363.36 L432.208991,363.36 L463.952991,199.008 C464.464991,196.448 464.976991,193.376 464.976991,190.816 C464.976991,171.872 449.104991,156 431.184991,156 L429.648991,156 L429.648991,156 Z" id="flash" fill="#FFFFFF"></path>
        <text id="FastAdmin" font-family="MyanmarMN, Myanmar MN" font-size="144" font-weight="normal" fill="#4A4A4A">
            <tspan x="33" y="1121">FastAdmin</tspan>
        </text>
    </g>
</svg>