<?xml version="1.0" encoding="UTF-8" standalone="no"?>
<svg width="1000px" height="1000px" viewBox="0 0 1000 1000" version="1.1" xmlns="http://www.w3.org/2000/svg" xmlns:xlink="http://www.w3.org/1999/xlink">
    <!-- Generator: Sketch 3.7.1 (28215) - http://www.bohemiancoding.com/sketch -->
    <title>Group 2</title>
    <desc>Created with Sketch.</desc>
    <defs></defs>
    <g id="Page-1" stroke="none" stroke-width="1" fill="none" fill-rule="evenodd">
        <g id="Group-2">
            <path d="M928.424049,243.818679 C899.825622,276.028512 858.538471,296.72089 812.078227,296.720891 C725.794915,296.720891 655.909337,226.835313 655.909337,140.552 C655.909337,101.704989 670.647776,66.5669889 694.170715,39.2374336 C634.338509,13.9575949 568.649969,5.68434189e-14 499.740447,5.68434189e-14 C223.711934,5.68434189e-14 0,223.80954 0,499.740447 C0,775.768959 223.711934,999.480894 499.740447,999.480894 C775.768961,999.480894 999.480895,775.76896 999.480894,499.740447 C999.480894,406.136718 973.225,318.779746 928.424049,243.818679 L928.424049,243.818679 Z" id="Shape" fill="#E3FCD9"></path>
            <path d="M812.078227,0.195211166 C734.481809,0.195211166 671.526226,63.150795 671.526225,140.747211 C671.526224,218.343628 734.481809,281.299212 812.078227,281.299213 C889.674644,281.299214 952.630227,218.343629 952.630227,140.747211 C952.630227,63.150794 889.674643,0.195211166 812.078227,0.195211166 L812.078227,0.195211166 Z M894.35971,102.193017 L796.949365,199.603362 C791.385848,205.166879 782.308531,205.166879 776.842621,199.603362 L729.796742,152.557484 C724.233226,146.993968 724.233226,137.916651 729.796742,132.450739 C735.360259,126.887223 744.437576,126.887223 749.903487,132.450739 L781.527688,164.074939 C784.455854,167.003106 789.238526,167.003106 792.166693,164.074939 L874.15536,82.0862722 C879.718877,76.5227555 888.796193,76.5227555 894.262105,82.0862722 C899.923227,87.5521829 899.923227,96.6294997 894.35971,102.193017 L894.35971,102.193017 Z" id="Shape" fill="#9AD388"></path>
            <g id="Group" transform="translate(222.536413, 340.709923)" fill="#9AD388">
                <ellipse id="Oval-1" cx="112.815854" cy="67.8491107" rx="67.8608086" ry="67.8491107"></ellipse>
                <ellipse id="Oval-1-Copy" cx="441.810822" cy="67.8491107" rx="67.8608086" ry="67.8491107"></ellipse>
                <path d="M2.6939078,297.641001 C-3.83805327,283.709963 2.13943932,267.103606 16.0390529,260.586137 C29.8499119,254.093644 46.4181552,260.029694 52.9790356,273.902791 C55.7613514,279.725955 122.306574,416.052327 276.769992,416.052327 C445.307541,416.052327 497.538297,279.808873 499.706308,274.016677 C505.015645,259.608118 520.914737,252.25249 535.339899,257.435296 C549.714202,262.703017 557.161634,278.5851 551.960996,293.018633 C551.29683,294.769878 485.192391,471.748507 276.769991,471.748507 C86.3907615,471.748507 6.0037667,304.743882 2.6939078,297.641001 Z" id="Shape"></path>
            </g>
        </g>
    </g>
</svg>